<svg width="21" height="21" viewBox="0 0 21 21" fill="none" xmlns="http://www.w3.org/2000/svg">
<path fill-rule="evenodd" clip-rule="evenodd" d="M17.2668 6.53358C19.071 6.53358 20.5336 5.07098 20.5336 3.26679C20.5336 1.46259 19.071 0 17.2668 0C15.4626 0 14 1.46259 14 3.26679C14 3.44558 14.0144 3.62102 14.042 3.79201L5.88801 8.06817C5.2925 7.26897 4.34009 6.75136 3.26679 6.75136C1.46259 6.75136 0 8.21395 0 10.0181C0 11.8223 1.46259 13.2849 3.26679 13.2849C3.94821 13.2849 4.58091 13.0763 5.10448 12.7194L14.0021 17.3856C14.0646 19.1347 15.5024 20.5336 17.2668 20.5336C19.071 20.5336 20.5336 19.071 20.5336 17.2668C20.5336 15.4626 19.071 14 17.2668 14C16.3317 14 15.4884 14.3929 14.8929 15.0226L6.47998 10.6106C6.48151 10.6023 6.48301 10.5939 6.48448 10.5855L15.3691 5.92618C15.904 6.30856 16.5591 6.53358 17.2668 6.53358Z" fill="#202020"/>
</svg>
