<svg xmlns="http://www.w3.org/2000/svg" width="20" height="14" fill="none"><path fill="#FAF9F6" d="M4.823 1.268c.072-.438.691-.438.763 0l.567 3.448c.04.244.29.39.517.303l3.214-1.225c.387-.094.718.387.383.67L7.615 6.698a.397.397 0 0 0 0 .604l2.652 2.234c.335.283.042.764-.383.67L6.67 8.981a.386.386 0 0 0-.517.303l-.567 3.448c-.072.438-.69.438-.763 0l-.567-3.448a.386.386 0 0 0-.517-.303L.525 10.206c-.408.156-.718-.387-.382-.67l2.651-2.234a.397.397 0 0 0 0-.604L.143 4.464c-.336-.283-.026-.826.382-.67L3.74 5.019a.386.386 0 0 0 .517-.303l.567-3.448Z"/><path fill="#FAF9F6" d="M14.414 1.268c.072-.438.69-.438.763 0l.566 3.448c.04.244.29.39.518.303l3.214-1.225c.408-.156.718.387.382.67l-2.651 2.234a.397.397 0 0 0 0 .604l2.651 2.234c.336.283.026.826-.382.67L16.26 8.981a.386.386 0 0 0-.518.303l-.566 3.448c-.072.438-.691.438-.763 0l-.567-3.448a.386.386 0 0 0-.517-.303l-3.214 1.225c-.425.094-.718-.387-.383-.67l2.652-2.234a.397.397 0 0 0 0-.604L9.733 4.464c-.335-.283-.042-.764.383-.67l3.214 1.225a.386.386 0 0 0 .517-.303l.567-3.448Z"/></svg>