<svg xmlns="http://www.w3.org/2000/svg" width="552" height="552" fill="none"><g fill="#FAF9F6" clip-path="url(#a)"><path d="m351.525 423.083 104.341-104.386c8.433-8.436 8.708-22.038.613-30.803a248.193 248.193 0 0 0-13.685-13.691c-8.761-8.099-22.357-7.823-30.79.613L307.663 379.202V22.404c0-11.93-9.42-21.754-21.336-22.216a249.59 249.59 0 0 0-19.354 0c-11.916.462-21.336 10.285-21.336 22.216v356.798L141.296 274.816c-8.433-8.436-22.029-8.712-30.79-.613a248.523 248.523 0 0 0-13.685 13.69c-8.095 8.766-7.82 22.368.613 30.804l104.341 104.386 60.284 60.31c8.788 8.792 23.086 8.658 31.715-.303l57.751-60.016v.009Z"/><path d="M498.57 552c11.958 0 21.804-9.431 22.268-21.361.125-3.212.187-6.442.187-9.689s-.062-6.477-.187-9.689c-.464-11.93-10.31-21.361-22.268-21.361H52.43c-11.958 0-21.805 9.431-22.268 21.361a249.749 249.749 0 0 0 0 19.378C30.625 542.569 40.472 552 52.43 552h446.14Z"/></g><defs><clipPath id="a"><path fill="#fff" d="M0 .5h551.08v551.08H0z"/></clipPath></defs></svg>