<svg xmlns="http://www.w3.org/2000/svg" width="20" height="18" fill="none"><path fill="#FAF9F6" d="M4.335 1.606C6.628 3.276 9.095 6.664 10 8.481c.906-1.817 3.372-5.204 5.665-6.875C17.319.401 20-.53 20 2.436c0 .593-.35 4.979-.555 5.69-.714 2.476-3.316 3.108-5.63 2.726 4.045.668 5.074 2.88 2.852 5.093-4.22 4.202-6.066-1.055-6.54-2.402-.086-.246-.126-.362-.127-.264 0-.098-.041.018-.128.264-.473 1.347-2.318 6.604-6.539 2.402-2.222-2.213-1.193-4.426 2.852-5.094-2.314.383-4.916-.249-5.63-2.724C.35 7.415 0 3.029 0 2.437 0-.532 2.68.4 4.335 1.606Z"/></svg>